<svg width="85" height="20" viewBox="0 0 85 20" fill="none" xmlns="http://www.w3.org/2000/svg">
<path d="M79.9668 8.56765C77.2958 10.9884 74.7232 13.3006 72.1611 15.6209C71.6482 16.0812 71.2867 16.4066 70.7388 17.0896C70.3266 17.5926 69.4754 18.6781 70.1085 19.0058C70.6597 19.2219 71.0786 19.3051 72.0483 18.5911C74.543 16.7349 76.7414 14.5226 78.9345 12.3395C80.8697 10.4104 82.316 8.90982 83.9273 7.10198C84.6798 6.25762 84.5064 5.56233 83.6005 5.04573C82.7873 4.58239 81.9609 4.0925 81.0757 3.79078C77.8902 2.68551 74.6886 1.66773 71.4817 0.612805C71.0842 0.479288 70.7821 0.351295 70.2864 0.259991C69.6845 0.155186 69.2525 0.0454645 69.0364 0.596646C68.8257 1.11866 69.4771 1.57633 69.8507 1.74162C72.9426 3.19147 79.3704 6.07582 79.6776 6.30726C77.7424 7.02428 75.9665 7.72841 74.1483 8.3343C61.4663 12.4934 48.5955 15.7132 35.1191 15.8365C24.4515 15.9342 13.9564 14.7673 3.65076 11.9829C3.0411 11.8223 2.41012 11.7122 1.80031 11.618C0.975773 11.4782 0.522068 11.5514 0.420325 11.9729C0.33625 12.7896 0.871471 13.0269 1.28206 13.2532C2.09525 13.7166 3.01756 14.0131 3.91071 14.3042C15.8983 18.0738 28.2028 18.9769 40.678 18.2653C53.4822 17.5358 65.5952 13.9775 77.448 9.37617C78.0639 9.10969 79.6485 8.59345 79.9668 8.56765Z" fill="#EAEFF3"/>
</svg>
