<svg width="85" height="20" viewBox="0 0 85 20" fill="none" xmlns="http://www.w3.org/2000/svg">
<path d="M80.3496 11.4081C77.6786 8.9873 75.106 6.67507 72.5439 4.35485C72.031 3.89452 71.6695 3.56911 71.1216 2.88607C70.7094 2.38307 69.8582 1.29758 70.4913 0.969913C71.0425 0.753828 71.4614 0.670657 72.4311 1.38457C74.9258 3.24079 77.1242 5.45309 79.3173 7.63623C81.2525 9.56534 82.6988 11.0659 84.3101 12.8737C85.0626 13.7181 84.8892 14.4134 83.9833 14.93C83.1701 15.3933 82.3437 15.8832 81.4585 16.1849C78.273 17.2902 75.0714 18.308 71.8645 19.3629C71.467 19.4964 71.1649 19.6244 70.6692 19.7157C70.0673 19.8205 69.6353 19.9302 69.4192 19.3791C69.2085 18.857 69.8599 18.3994 70.2335 18.2341C73.3254 16.7842 79.7532 13.8999 80.0604 13.6684C78.1252 12.9514 76.3493 12.2473 74.5311 11.6414C61.8491 7.48228 48.9783 4.26248 35.5019 4.13925C24.8343 4.04147 14.3393 5.20843 4.03357 7.99284C3.42392 8.15336 2.79293 8.26353 2.18312 8.35775C1.35859 8.49754 0.904881 8.42431 0.803137 8.00283C0.719063 7.18612 1.25428 6.94885 1.66487 6.72247C2.47806 6.25913 3.40037 5.96264 4.29353 5.67152C16.2812 1.90195 28.5856 0.998762 41.0608 1.71042C53.865 2.43989 65.978 5.99825 77.8308 10.5995C78.4467 10.866 80.0313 11.3823 80.3496 11.4081Z" fill="#EAEFF3"/>
</svg>
