<svg width="45" height="101" viewBox="0 0 45 101" fill="none" xmlns="http://www.w3.org/2000/svg">
<path d="M36.4192 94.4123C34.1663 86.1282 31.9305 77.8487 29.6001 69.5805C29.4422 69.0066 28.6445 68.4262 28.0255 68.2054C13.2264 63.0302 4.23213 52.6098 0.793307 37.464C0.221493 34.9461 0.439169 32.2182 1.45306 29.3921C2.78283 25.6607 6.45612 24.0604 10.1646 25.4756C13.4079 26.7113 15.661 29.1114 17.6777 31.7781C22.1221 37.6982 25.0452 44.4388 27.7264 51.2613C29.4275 55.5848 30.865 60.0027 32.4814 64.5051C34.5805 64.0594 36.5115 62.1205 36.872 60.0908C37.5724 56.2458 37.1984 54.2209 36.8304 51.0794C35.6777 41.2204 32.1986 32.0395 27.4084 23.4422C23.8439 17.0429 19.8241 10.9066 15.9994 4.65765C15.6693 4.11094 15.2787 3.58468 14.9999 3.05172C14.5629 2.21975 14.5022 1.48859 15.0993 0.970367C15.5905 0.368753 16.6334 0.923161 17.1645 1.2671C18.0397 1.83157 18.8258 2.5921 19.4475 3.41859C29.3786 16.363 37.2955 30.3257 40.4844 46.5411C41.1804 50.1004 41.3413 53.8096 41.2845 57.4421C41.1882 62.6588 39.0197 66.7153 33.5375 68.3625C35.4007 76.3223 37.2401 84.1656 39.1159 92.147C39.8033 89.5817 40.454 87.1531 41.1093 84.7074C41.2193 84.297 41.278 83.8728 41.4222 83.4715C41.8055 82.3827 41.9773 80.8523 43.6124 81.1805C45.2134 81.4995 44.8318 82.992 44.5877 83.9714C43.383 88.9461 42.1225 93.9242 40.6784 98.8347C40.0863 100.839 38.4911 101.456 36.8982 100.15C32.2539 96.4124 27.7638 92.4414 23.3125 88.4624C22.8978 88.0947 22.3961 87.0254 23.1362 86.1789C23.7733 85.5797 24.9317 85.9084 25.4365 86.282C28.4779 88.545 31.4267 90.9483 34.4018 93.3218C34.9316 93.7388 35.4523 94.1899 35.9776 94.6239C36.7362 95.4871 36.593 95.0638 36.4192 94.4123ZM27.7912 64.7698C28.3932 64.9861 27.8368 63.8472 27.7754 63.6658C24.5637 54.1716 21.062 44.8013 15.5737 36.3468C14.1085 34.0845 12.1938 31.9951 10.1052 30.2806C7.32162 28.0133 4.63422 29.2179 4.34591 32.8251C4.16063 35.1584 4.27739 37.6643 4.92252 39.9085C7.62671 49.45 15.4319 58.5619 21.7725 62.0573C24.2071 63.3695 24.9254 63.562 27.7912 64.7698Z" fill="#5533FF"/>
</svg>
