<svg width="50" height="46" viewBox="0 0 50 46" fill="none" xmlns="http://www.w3.org/2000/svg">
<path d="M19.3621 41.8733C19.8287 40.1686 20.1875 38.7152 20.6271 37.2887C21.3628 34.8663 22.1972 32.5067 23.9108 30.5419C25.6513 28.5502 27.8225 27.7966 30.3077 28.5233C31.8329 28.9719 33.2325 29.8332 34.659 30.5599C35.2152 30.847 35.6997 31.2956 36.4623 31.8428C36.1752 30.4791 35.933 29.4115 35.7356 28.3349C35.2421 25.7061 34.641 23.0954 34.327 20.4487C33.8784 16.8241 35.7087 14.6529 39.3692 14.3299C40.8046 14.2043 42.285 14.4286 43.7474 14.5094C44.187 14.5363 44.6176 14.626 45.138 14.6978C43.7922 12.5446 42.4824 10.5169 41.2622 8.45344C38.4182 3.6356 41.6211 0.701837 45.4789 0.199418C46.5107 0.0648414 47.5963 0.181477 48.646 0.280166C49.3458 0.369883 49.92 0.818472 49.8123 1.59004C49.7226 2.28984 49.0946 2.48722 48.4306 2.50516C47.7757 2.53208 47.1118 2.51413 46.4748 2.61282C45.7301 2.72946 44.9765 2.85506 44.2677 3.11524C42.276 3.85093 41.6839 5.08903 42.5272 7.04488C43.1194 8.42653 43.9178 9.72743 44.6894 11.0194C45.4072 12.2216 46.1877 13.3969 46.9682 14.5722C47.363 15.1823 47.7398 15.8103 47.363 16.528C46.9324 17.3534 46.1159 17.2906 45.3623 17.2368C44.4023 17.174 43.4603 16.9676 42.5003 16.9587C41.2891 16.9318 40.069 16.9318 38.8847 17.0933C37.2787 17.3175 36.6507 18.0173 36.6597 19.6412C36.6687 21.1933 36.7673 22.7814 37.0275 24.3155C37.6017 27.5992 38.2836 30.847 38.9744 34.1037C39.1359 34.8753 39.1269 35.5302 38.454 35.9878C37.817 36.4274 37.207 36.1583 36.6417 35.7366C35.6369 34.983 34.65 34.1755 33.6093 33.4757C32.6942 32.8656 31.7432 32.2555 30.7383 31.8249C28.0558 30.6675 26.2614 31.2417 24.5837 33.6192C23.3187 35.4046 22.4394 37.3784 21.8114 39.4599C21.3539 40.9581 20.995 42.4833 20.6002 43.9906C20.3939 44.7891 20.1786 45.6145 19.1827 45.7311C18.2407 45.8298 17.7382 45.148 17.2807 44.4571C17.0923 44.1611 16.9487 43.8381 16.7962 43.5241C16.5001 42.8871 16.1592 42.2591 15.9259 41.5951C14.1585 36.6696 10.3006 35.0188 5.4828 34.956C4.5946 34.9471 3.69742 35.2162 2.80922 35.3867C2.3696 35.4674 1.93896 35.6827 1.49934 35.7097C1.18533 35.7366 0.709823 35.6379 0.58422 35.4226C0.440671 35.1893 0.548331 34.7228 0.647022 34.4446C0.871316 33.8435 1.4814 33.3411 2.03765 33.1079C3.14118 32.6503 4.31647 32.2466 5.49177 32.1299C8.09359 31.8608 10.6147 32.3901 13.046 33.368C15.1185 34.2024 16.5181 35.7635 17.505 37.7014C18.133 38.9754 18.6534 40.2853 19.3621 41.8733Z" fill="white"/>
</svg>
