<svg width="98" height="34" viewBox="0 0 98 34" fill="none" xmlns="http://www.w3.org/2000/svg">
<path d="M4.28335 26.1175C4.25594 26.18 4.18971 26.2419 4.08465 26.3032C3.98714 26.3514 3.87068 26.3495 3.73525 26.2974C3.63626 26.2577 3.52182 26.2221 3.39192 26.1907C3.25926 26.1489 3.11768 26.1151 2.96717 26.0891C2.81666 26.0632 2.66892 26.0476 2.52393 26.0423C2.37895 26.0369 2.24464 26.0508 2.121 26.084C1.96645 26.1254 1.81126 26.2056 1.65543 26.3247C1.50991 26.441 1.39327 26.5826 1.30552 26.7497C1.13756 27.0708 1.11763 27.3467 1.2457 27.5774C1.38132 27.7951 1.62098 27.9683 1.96469 28.097C2.18604 28.1813 2.42422 28.2665 2.67924 28.3528C2.93149 28.4288 3.1786 28.5061 3.42055 28.5848C3.67281 28.6608 3.90823 28.7358 4.12682 28.8097C4.35571 28.8809 4.5547 28.9435 4.72379 28.9976C4.94238 29.0715 5.15342 29.1586 5.35692 29.2586C5.56042 29.3587 5.74884 29.4849 5.92217 29.6372C6.09274 29.7793 6.24446 29.9539 6.37732 30.1613C6.51017 30.3686 6.61525 30.6165 6.69256 30.905C6.77227 31.491 6.66708 32.0051 6.37696 32.4473C6.09439 32.8764 5.71825 33.2035 5.24854 33.4288C4.83789 33.6271 4.40617 33.7263 3.95337 33.7261C3.51087 33.7232 3.10259 33.6007 2.72851 33.3586C2.63431 33.2955 2.54212 33.1987 2.45195 33.0683C2.36179 32.9379 2.32903 32.8362 2.35368 32.7633C2.39065 32.6541 2.48227 32.5632 2.62853 32.4909C2.77204 32.4083 2.89191 32.3817 2.98814 32.4111C3.28308 32.564 3.60406 32.6492 3.95107 32.6666C4.29532 32.6738 4.63155 32.5892 4.95977 32.4129C5.21109 32.2793 5.39709 32.108 5.51777 31.899C5.63569 31.6796 5.68627 31.4563 5.66951 31.2289C5.66029 30.9884 5.56726 30.7648 5.39043 30.5582C5.22114 30.3386 4.97117 30.1681 4.64053 30.0469C4.13252 29.8407 3.59911 29.6634 3.04032 29.5149C2.49184 29.3637 1.922 29.1741 1.33082 28.946C1.03863 28.8034 0.802744 28.6237 0.623151 28.4068C0.453861 28.1871 0.337468 27.9588 0.273971 27.7218C0.207713 27.4745 0.197112 27.2289 0.242169 26.9849C0.284465 26.7307 0.374876 26.4911 0.513401 26.2663C0.649165 26.0311 0.825502 25.8237 1.04241 25.6441C1.25932 25.4646 1.51441 25.3244 1.80768 25.2238C2.21429 25.0927 2.63443 25.074 3.0681 25.1676C3.49901 25.2509 3.87023 25.3999 4.18174 25.6146C4.24982 25.6626 4.29113 25.7344 4.30568 25.8299C4.33052 25.9226 4.32308 26.0185 4.28335 26.1175ZM10.2805 25.786C10.62 25.8165 10.9231 25.9175 11.1899 26.0889C11.467 26.2576 11.7009 26.471 11.8915 26.7292C12.0794 26.977 12.2185 27.2489 12.3089 27.5449C12.4096 27.8382 12.4532 28.1247 12.4398 28.4043C12.4037 28.7232 12.3354 29.0452 12.2348 29.3703C12.1342 29.6954 11.9995 29.9965 11.8308 30.2736C11.6621 30.5507 11.4515 30.7949 11.1989 31.0062C10.9463 31.2174 10.6448 31.37 10.2945 31.4638C9.87211 31.577 9.49042 31.5744 9.14947 31.4559C8.80853 31.3375 8.51422 31.1458 8.26655 30.8808C8.01887 30.6159 7.81683 30.2946 7.6604 29.9169C7.51428 29.5364 7.41968 29.1421 7.37659 28.734C7.3405 28.4345 7.33293 28.1384 7.35388 27.8456C7.38237 27.5398 7.44629 27.2632 7.54562 27.0157C7.64219 26.7579 7.77041 26.5359 7.93028 26.3495C8.10046 26.1603 8.31434 26.0312 8.57192 25.9622C8.71616 25.9236 8.90475 25.9061 9.13768 25.91C9.36785 25.9035 9.58947 25.927 9.80254 25.9803C9.90335 25.8208 10.0627 25.756 10.2805 25.786ZM9.99554 27.0715C9.86288 27.0298 9.7041 26.9729 9.51918 26.901C9.3418 26.816 9.19645 26.7887 9.08312 26.8191C8.95948 26.8522 8.85102 26.942 8.75775 27.0885C8.67478 27.2322 8.60764 27.3937 8.55632 27.5731C8.51255 27.7395 8.48046 27.9082 8.46005 28.0793C8.43964 28.2504 8.43156 28.3851 8.4358 28.4833C8.4463 28.6462 8.47539 28.8371 8.52306 29.0563C8.57073 29.2754 8.64416 29.4876 8.74335 29.693C8.83978 29.888 8.96812 30.0579 9.12839 30.2027C9.2962 30.3344 9.50826 30.4046 9.76456 30.4132C9.91984 30.4158 10.0898 30.3702 10.2746 30.2765C10.4565 30.1726 10.6237 30.0339 10.776 29.8606C10.9386 29.6845 11.0748 29.4713 11.1844 29.2211C11.3043 28.9681 11.3748 28.6952 11.3957 28.4025C11.4187 28.0761 11.3359 27.767 11.1473 27.4752C10.9662 27.1704 10.7069 26.9858 10.3695 26.9216C10.3112 26.9925 10.246 27.0376 10.1738 27.0569C10.1017 27.0762 10.0423 27.0811 9.99554 27.0715ZM15.6156 33.5C15.5139 33.45 15.4684 33.3628 15.4792 33.2384C15.4901 33.114 15.5051 33.0051 15.5242 32.9116C15.5637 32.647 15.5902 32.3749 15.6036 32.0952C15.6143 31.8053 15.6053 31.504 15.5768 31.1914C15.5615 31.0519 15.6032 30.9193 15.702 30.7934C15.7981 30.6573 15.9574 30.5925 16.18 30.5991C16.2735 30.6182 16.3364 30.6676 16.3688 30.7473C16.4087 30.8139 16.4411 30.8935 16.466 30.9863C16.5046 31.1305 16.5296 31.306 16.5408 31.5128C16.5596 31.7066 16.5615 31.8993 16.5467 32.091C16.5345 32.293 16.508 32.4824 16.4669 32.659C16.4259 32.8356 16.3804 32.9748 16.3304 33.0766C16.2426 33.2437 16.1321 33.3671 15.9989 33.447C15.8788 33.5344 15.751 33.5521 15.6156 33.5ZM24.7199 21.5691C24.8384 21.8466 24.9521 22.1474 25.0611 22.4716C25.1776 22.7827 25.2851 23.1017 25.3838 23.4286C25.4927 23.7528 25.5886 24.0695 25.6714 24.3786C25.7543 24.6877 25.8237 24.9672 25.8796 25.2173C26.27 25.3556 26.5196 25.504 26.6284 25.6626C26.7474 25.8185 26.7992 25.9703 26.7835 26.118C26.7714 26.32 26.6843 26.4483 26.5222 26.5027C26.3677 26.5442 26.1722 26.5358 25.9357 26.4777C25.8191 26.6194 25.6846 26.7769 25.5323 26.9502C25.3772 27.1132 25.2118 27.279 25.0361 27.4476C24.8577 27.6058 24.6764 27.7538 24.4925 27.8914C24.3085 28.029 24.1331 28.1368 23.9662 28.2146C23.6503 28.3545 23.3349 28.3727 23.0201 28.2693C22.7156 28.1632 22.47 27.9474 22.2835 27.622C22.1581 27.4015 22.0778 27.1636 22.0425 26.908C22.0043 26.6421 22.0167 26.3793 22.0796 26.1195C22.1398 25.8494 22.248 25.594 22.4044 25.3533C22.5711 25.1099 22.7849 24.898 23.0457 24.7177C23.1096 24.6675 23.2006 24.6155 23.3187 24.5617C23.4471 24.5052 23.5797 24.4642 23.7164 24.4386C23.8606 24.4 24.0118 24.3871 24.1698 24.3999C24.3279 24.4128 24.4853 24.4645 24.642 24.555C24.5951 24.3798 24.5389 24.1906 24.4734 23.9873C24.4154 23.7709 24.3523 23.556 24.284 23.3424C24.2157 23.1287 24.1464 22.932 24.0761 22.752C24.0134 22.559 23.9537 22.3983 23.8972 22.2699C23.8352 22.1209 23.7485 22.0447 23.6372 22.0414C23.5335 22.025 23.4164 22.0619 23.2859 22.1521C23.0607 22.3008 22.815 22.5378 22.5488 22.8631C22.2826 23.1884 22.036 23.5251 21.809 23.873C21.7411 23.9906 21.644 24.0608 21.5176 24.0836C21.4015 24.1037 21.2912 24.0835 21.1867 24.0232C21.0821 23.9629 21.0109 23.8826 20.973 23.7823C20.9323 23.6717 20.9418 23.5422 21.0014 23.3937C21.1269 23.1613 21.2716 22.9182 21.4355 22.6645C21.5994 22.4108 21.7791 22.1749 21.9747 21.9568C22.1675 21.7285 22.3737 21.5297 22.5934 21.3604C22.8131 21.1911 23.0452 21.0682 23.2897 20.9916C23.6475 20.8847 23.9478 20.8926 24.1905 21.0153C24.4304 21.1277 24.6069 21.3123 24.7199 21.5691ZM23.8175 25.3723C23.6918 25.4391 23.5655 25.5447 23.4386 25.6891C23.3192 25.8205 23.217 25.9749 23.132 26.1523C23.0545 26.3166 23.0084 26.4946 22.9935 26.6863C22.9861 26.865 23.0303 27.0298 23.126 27.1809C23.1632 27.2372 23.2168 27.2725 23.2869 27.2868C23.3673 27.2984 23.446 27.2828 23.5229 27.2402C23.7563 27.1224 24.0083 26.95 24.2787 26.7229C24.5567 26.4828 24.765 26.2503 24.9035 26.0254C24.887 25.9636 24.8353 25.8946 24.7487 25.8185C24.6592 25.732 24.5609 25.6534 24.4536 25.5828C24.3436 25.5018 24.2274 25.4391 24.105 25.3946C23.993 25.3473 23.8971 25.3399 23.8175 25.3723ZM31.1348 20.2644C30.9769 20.4171 30.8101 20.5777 30.6344 20.7463C30.4691 20.9121 30.304 21.0998 30.1394 21.3096C29.9823 21.5063 29.8386 21.7325 29.7083 21.9883C29.5856 22.231 29.4894 22.5107 29.4197 22.8276C29.3186 23.2743 29.2872 23.7134 29.3255 24.1449C29.361 24.566 29.4209 24.9751 29.5052 25.3722C29.5549 25.5576 29.5596 25.7606 29.5194 25.9813C29.4866 26.1888 29.393 26.3133 29.2384 26.3547C29.0427 26.4071 28.8568 26.352 28.6807 26.1894C28.5121 26.0137 28.3824 25.8387 28.2915 25.6643C27.9203 24.9797 27.5828 24.2971 27.279 23.6165C26.9724 22.9257 26.6827 22.2358 26.4097 21.547C26.3711 21.4027 26.3875 21.299 26.4588 21.2357C26.5405 21.1696 26.6394 21.1266 26.7555 21.1065C26.8819 21.0837 27.0087 21.0828 27.1358 21.104C27.263 21.1251 27.352 21.1896 27.403 21.2974C27.5463 21.6676 27.7055 22.0556 27.8805 22.4615C28.0528 22.857 28.2099 23.1959 28.3517 23.4782C28.2991 23.1168 28.3213 22.7464 28.4184 22.367C28.5155 21.9876 28.6621 21.6281 28.8583 21.2885C29.0647 20.946 29.313 20.6365 29.6033 20.36C29.9039 20.0807 30.2263 19.8618 30.5703 19.7033C30.7194 19.6413 30.8481 19.6068 30.9567 19.5998C31.0653 19.5928 31.147 19.6095 31.2021 19.65C31.2571 19.6905 31.2843 19.7715 31.2838 19.8931C31.2935 20.012 31.2439 20.1357 31.1348 20.2644ZM36.2634 20.7122C35.9251 21.0569 35.5421 21.3583 35.1143 21.6164C34.6838 21.8643 34.2007 22.06 33.6649 22.2036C33.7821 22.5587 33.9625 22.8196 34.2059 22.9862C34.4466 23.1426 34.7115 23.2041 35.0007 23.1708C35.1711 23.1472 35.3346 23.0979 35.4912 23.0228C35.658 22.945 35.8053 22.8558 35.933 22.7554C36.0682 22.6418 36.1866 22.5273 36.2881 22.4117C36.3897 22.2962 36.4758 22.1848 36.5464 22.0775C36.6171 21.9702 36.7012 21.8925 36.7987 21.8443C36.8934 21.7857 36.9693 21.7599 37.0264 21.7667C37.1844 21.7796 37.2773 21.9203 37.3051 22.1889C37.2286 22.5628 37.0676 22.9096 36.822 23.2294C36.5736 23.5389 36.2671 23.7757 35.9024 23.9396C35.5893 24.0898 35.2452 24.1654 34.87 24.1666C34.4949 24.1677 34.1323 24.0716 33.7823 23.8783C33.4819 23.7048 33.227 23.4749 33.0178 23.1886C32.8086 22.9024 32.6429 22.5934 32.5209 22.2616C32.4044 21.9505 32.3488 21.6397 32.3539 21.3291C32.3693 21.0158 32.4408 20.7261 32.5683 20.46C32.693 20.1836 32.8751 19.9361 33.1146 19.7173C33.3542 19.4985 33.6566 19.3291 34.022 19.2091C34.4568 19.0595 34.8807 19.0343 35.2938 19.1334C35.7068 19.2325 36.0324 19.4379 36.2705 19.7496C36.4054 19.9233 36.4716 20.0877 36.469 20.243C36.4767 20.3956 36.4082 20.552 36.2634 20.7122ZM34.2045 20.1375C34.107 20.1857 34.0034 20.2522 33.8935 20.3368C33.794 20.4187 33.7037 20.5147 33.6228 20.6247C33.5494 20.7217 33.4853 20.8327 33.4305 20.9578C33.3832 21.0699 33.371 21.1891 33.3938 21.3155C33.5689 21.2686 33.7554 21.202 33.9532 21.1159C34.1613 21.027 34.3577 20.9357 34.5424 20.8421C34.7347 20.7354 34.9049 20.629 35.0532 20.523C35.2118 20.4142 35.3381 20.3086 35.4321 20.2061C35.2972 20.0325 35.111 19.9554 34.8732 19.9749C34.6431 19.9814 34.4202 20.0356 34.2045 20.1375ZM46.7329 16.5818C46.9129 17.1299 47.0942 17.6831 47.277 18.2415C47.4701 18.7971 47.6308 19.3559 47.7593 19.9178C47.885 20.4694 47.9719 21.0203 48.02 21.5707C48.0783 22.1182 48.0694 22.6617 47.9931 23.2012C47.914 23.7303 47.7545 24.2479 47.5146 24.7539C47.2851 25.2571 46.9517 25.744 46.5146 26.2145C46.446 26.2881 46.3615 26.3439 46.2612 26.3818C46.1713 26.4169 46.0772 26.4366 45.9789 26.4409C45.8834 26.4554 45.7941 26.4517 45.7109 26.4299C45.6305 26.4183 45.5717 26.3843 45.5346 26.328C45.4788 26.2436 45.4667 26.1364 45.4981 26.0065C45.5296 25.8766 45.6008 25.7305 45.712 25.5682C46.0742 25.1067 46.3588 24.644 46.5657 24.1799C46.7727 23.7159 46.9095 23.2375 46.9763 22.7448C47.043 22.2521 47.0331 21.7412 46.9466 21.2122C46.8676 20.6702 46.7144 20.0984 46.487 19.4968C46.4047 19.6844 46.3033 19.8828 46.1826 20.0918C46.0619 20.3008 45.9268 20.4972 45.7772 20.6808C45.6249 20.8541 45.4633 21.0134 45.2924 21.1586C45.1187 21.2935 44.9443 21.3844 44.7691 21.4313C44.6249 21.4699 44.4723 21.4777 44.3115 21.4545C44.1507 21.4313 43.9747 21.3515 43.7836 21.215C43.5607 21.0428 43.3465 20.8407 43.1407 20.6087C42.9426 20.3637 42.7626 20.1248 42.6008 19.892C42.4391 19.6593 42.2997 19.4482 42.1827 19.2587C42.0759 19.0664 42.0064 18.9305 41.974 18.8508C41.9258 18.7533 41.8996 18.6554 41.8953 18.5572C41.8911 18.4589 41.9429 18.3843 42.0507 18.3333C42.1969 18.261 42.3439 18.2326 42.4917 18.2483C42.6394 18.2639 42.7543 18.3215 42.8361 18.421C42.9077 18.5233 43.0113 18.6833 43.1469 18.9009C43.2826 19.1186 43.4336 19.3321 43.6002 19.5414C43.7639 19.7405 43.9259 19.9124 44.0862 20.0572C44.2568 20.1992 44.409 20.2523 44.543 20.2164C44.6975 20.175 44.8571 20.0494 45.0218 19.8397C45.1967 19.6271 45.349 19.371 45.4785 19.0713C45.608 18.7715 45.6997 18.4543 45.7536 18.1197C45.815 17.7719 45.807 17.4538 45.7297 17.1653C45.7132 17.1035 45.7041 17.0286 45.7027 16.9407C45.7012 16.8527 45.7114 16.7672 45.7333 16.684C45.7524 16.5905 45.7808 16.5111 45.8185 16.4458C45.8638 16.3674 45.916 16.3148 45.975 16.2879C46.1343 16.2231 46.291 16.2309 46.445 16.3111C46.6066 16.3782 46.7025 16.4684 46.7329 16.5818ZM51.6342 14.7053C51.9737 14.7358 52.2768 14.8368 52.5436 15.0082C52.8207 15.1769 53.0546 15.3903 53.2452 15.6485C53.4331 15.8963 53.5722 16.1682 53.6626 16.4642C53.7633 16.7575 53.8069 17.044 53.7935 17.3236C53.7574 17.6425 53.6891 17.9645 53.5885 18.2896C53.4879 18.6147 53.3532 18.9158 53.1845 19.1929C53.0158 19.4701 52.8052 19.7142 52.5526 19.9255C52.3 20.1367 51.9985 20.2893 51.6482 20.3831C51.2258 20.4963 50.8441 20.4937 50.5032 20.3752C50.1622 20.2568 49.8679 20.0651 49.6202 19.8001C49.3726 19.5352 49.1705 19.2139 49.0141 18.8362C48.868 18.4557 48.7734 18.0614 48.7303 17.6533C48.6942 17.3538 48.6866 17.0577 48.7076 16.7649C48.7361 16.4591 48.8 16.1825 48.8993 15.935C48.9959 15.6773 49.1241 15.4552 49.284 15.2688C49.4542 15.0796 49.668 14.9505 49.9256 14.8815C50.0699 14.8429 50.2584 14.8255 50.4914 14.8293C50.7216 14.8228 50.9432 14.8463 51.1562 14.8996C51.257 14.7401 51.4164 14.6753 51.6342 14.7053ZM51.3492 15.9908C51.2166 15.9491 51.0578 15.8923 50.8729 15.8203C50.6955 15.7353 50.5501 15.708 50.4368 15.7384C50.3132 15.7715 50.2047 15.8613 50.1115 16.0078C50.0285 16.1515 49.9613 16.313 49.91 16.4924C49.8662 16.6588 49.8342 16.8275 49.8137 16.9986C49.7933 17.1697 49.7853 17.3044 49.7895 17.4026C49.8 17.5655 49.8291 17.7565 49.8768 17.9756C49.9244 18.1947 49.9979 18.4069 50.097 18.6123C50.1935 18.8073 50.3218 18.9772 50.4821 19.122C50.6499 19.2537 50.862 19.3239 51.1183 19.3325C51.2735 19.3351 51.4435 19.2895 51.6283 19.1958C51.8102 19.0919 51.9774 18.9532 52.1297 18.7799C52.2923 18.6038 52.4285 18.3906 52.5381 18.1404C52.658 17.8874 52.7285 17.6145 52.7494 17.3218C52.7724 16.9954 52.6896 16.6863 52.501 16.3945C52.3199 16.0897 52.0606 15.9051 51.7232 15.841C51.6649 15.9118 51.5997 15.9569 51.5275 15.9762C51.4554 15.9955 51.396 16.0004 51.3492 15.9908ZM55.8765 14.4465C55.8893 14.7412 55.9103 15.0669 55.9396 15.4235C55.9661 15.7697 56.0053 16.1015 56.0572 16.4189C56.1194 16.7335 56.194 17.0117 56.2808 17.2535C56.378 17.4925 56.4919 17.6497 56.6225 17.7251C56.806 17.7091 56.9876 17.5831 57.1673 17.3472C57.3443 17.101 57.5037 16.8099 57.6455 16.4737C57.7873 16.1375 57.903 15.7863 57.9926 15.42C58.0794 15.0433 58.1258 14.7217 58.1316 14.4551C58.1397 14.3204 58.1413 14.182 58.1363 14.0398C58.1313 13.8975 58.1095 13.7543 58.0708 13.6101C58.0487 13.5276 58.0796 13.4365 58.1633 13.3368C58.2545 13.224 58.3348 13.1528 58.4042 13.1232C58.4529 13.0991 58.5124 13.0942 58.5825 13.1085C58.6629 13.1201 58.7371 13.1499 58.8052 13.1979C58.8808 13.2329 58.9503 13.2861 59.0136 13.3574C59.0844 13.4158 59.1309 13.4861 59.153 13.5686C59.2564 13.8721 59.3784 14.2039 59.519 14.5637C59.6596 14.9236 59.8054 15.2821 59.9563 15.6392C60.1175 15.9936 60.2759 16.3376 60.4316 16.6714C60.5873 17.0051 60.7333 17.3028 60.8697 17.5644C60.9309 17.6695 60.9345 17.8065 60.8805 17.9756C60.8264 18.1447 60.7468 18.2599 60.6418 18.3212C60.5546 18.3666 60.4539 18.3825 60.3398 18.3689C60.2361 18.3526 60.1419 18.2895 60.0572 18.1796C59.967 18.0492 59.8686 17.8879 59.7619 17.6956C59.6627 17.4903 59.5621 17.2798 59.4602 17.0642C59.3658 16.8355 59.2755 16.6222 59.1894 16.4245C59.1005 16.2164 59.0316 16.0416 58.9826 15.9001C58.9026 16.2197 58.7931 16.5527 58.654 16.8992C58.5225 17.2326 58.3648 17.5509 58.181 17.8541C58.0048 18.1443 57.8007 18.3923 57.5687 18.598C57.3442 18.7906 57.0888 18.9088 56.8023 18.9524C56.3764 19.0113 55.9586 18.7092 55.549 18.0459C55.3893 17.7795 55.2625 17.4711 55.1686 17.1208C55.085 16.7678 55.0183 16.4157 54.9684 16.0647C54.9261 15.7005 54.8944 15.3557 54.8734 15.03C54.8627 14.7016 54.8569 14.4326 54.8559 14.223C54.8545 14.1351 54.8763 14.0519 54.9216 13.9735C54.9641 13.8848 55.0293 13.8397 55.1173 13.8383C55.2801 13.8278 55.444 13.8832 55.6091 14.0046C55.7844 14.1233 55.8736 14.2706 55.8765 14.4465ZM69.636 9.94799C69.4781 10.1007 69.3113 10.2614 69.1356 10.4299C68.9703 10.5957 68.8052 10.7835 68.6406 10.9932C68.4835 11.1899 68.3398 11.4162 68.2095 11.6719C68.0868 11.9146 67.9906 12.1944 67.9209 12.5112C67.8198 12.958 67.7884 13.397 67.8267 13.8285C67.8622 14.2496 67.9221 14.6587 68.0064 15.0558C68.0561 15.2412 68.0608 15.4443 68.0206 15.6649C67.9878 15.8724 67.8942 15.9969 67.7396 16.0383C67.5439 16.0908 67.358 16.0357 67.1819 15.8731C67.0133 15.6974 66.8836 15.5223 66.7927 15.3479C66.4215 14.6633 66.084 13.9807 65.7802 13.3002C65.4736 12.6093 65.1839 11.9195 64.9109 11.2306C64.8723 11.0864 64.8886 10.9826 64.96 10.9193C65.0417 10.8532 65.1406 10.8102 65.2567 10.7901C65.3831 10.7673 65.5099 10.7665 65.637 10.7876C65.7642 10.8088 65.8532 10.8732 65.9042 10.981C66.0475 11.3512 66.2067 11.7392 66.3817 12.1451C66.554 12.5407 66.7111 12.8796 66.8529 13.1618C66.8003 12.8005 66.8225 12.4301 66.9196 12.0507C67.0167 11.6713 67.1633 11.3118 67.3595 10.9721C67.5659 10.6297 67.8142 10.3202 68.1045 10.0436C68.4051 9.76429 68.7275 9.54541 69.0715 9.38696C69.2206 9.32494 69.3493 9.29044 69.4579 9.28344C69.5665 9.27643 69.6482 9.29317 69.7033 9.33364C69.7583 9.37412 69.7855 9.45516 69.785 9.57678C69.7947 9.69564 69.7451 9.81937 69.636 9.94799ZM74.7646 10.3959C74.4263 10.7405 74.0433 11.0419 73.6155 11.3001C73.185 11.548 72.7019 11.7437 72.1661 11.8872C72.2833 12.2423 72.4637 12.5032 72.7071 12.6699C72.9478 12.8262 73.2127 12.8878 73.5019 12.8544C73.6723 12.8309 73.8358 12.7816 73.9924 12.7065C74.1592 12.6286 74.3065 12.5395 74.4342 12.439C74.5694 12.3255 74.6878 12.2109 74.7893 12.0954C74.8909 11.9798 74.977 11.8684 75.0476 11.7611C75.1183 11.6539 75.2024 11.5761 75.2999 11.5279C75.3946 11.4694 75.4705 11.4435 75.5275 11.4503C75.6856 11.4632 75.7785 11.6039 75.8063 11.8726C75.7298 12.2464 75.5688 12.5933 75.3232 12.9131C75.0748 13.2226 74.7683 13.4593 74.4036 13.6233C74.0905 13.7734 73.7464 13.8491 73.3712 13.8502C72.9961 13.8513 72.6335 13.7552 72.2835 13.5619C71.9831 13.3884 71.7282 13.1585 71.519 12.8723C71.3098 12.586 71.1441 12.277 71.0221 11.9453C70.9056 11.6342 70.85 11.3233 70.8551 11.0127C70.8705 10.6994 70.942 10.4097 71.0694 10.1436C71.1942 9.86728 71.3763 9.61971 71.6158 9.40092C71.8554 9.18214 72.1578 9.01275 72.5232 8.89276C72.958 8.74313 73.3819 8.71789 73.795 8.81703C74.208 8.91616 74.5336 9.12156 74.7717 9.43322C74.9066 9.60689 74.9728 9.77137 74.9702 9.92666C74.9779 10.0792 74.9094 10.2356 74.7646 10.3959ZM72.7057 9.82115C72.6082 9.86937 72.5046 9.9358 72.3947 10.0204C72.2952 10.1023 72.2049 10.1983 72.124 10.3083C72.0506 10.4053 71.9865 10.5163 71.9317 10.6414C71.8844 10.7535 71.8722 10.8727 71.895 10.9991C72.0701 10.9522 72.2566 10.8857 72.4544 10.7995C72.6625 10.7107 72.8589 10.6194 73.0436 10.5257C73.2359 10.419 73.4061 10.3126 73.5544 10.2066C73.713 10.0979 73.8393 9.99226 73.9333 9.88977C73.7984 9.71609 73.6121 9.63902 73.3744 9.65854C73.1443 9.665 72.9214 9.71921 72.7057 9.82115ZM79.7475 6.82451C79.866 7.10196 79.9797 7.40277 80.0887 7.72695C80.2052 8.03807 80.3127 8.3571 80.4114 8.68404C80.5203 9.00823 80.6162 9.32486 80.699 9.63396C80.7819 9.94306 80.8512 10.2226 80.9072 10.4727C81.2976 10.611 81.5472 10.7594 81.656 10.918C81.775 11.0739 81.8267 11.2257 81.8111 11.3734C81.799 11.5754 81.7119 11.7037 81.5498 11.7581C81.3952 11.7996 81.1998 11.7912 80.9633 11.7331C80.8467 11.8748 80.7122 12.0323 80.5599 12.2056C80.4048 12.3686 80.2394 12.5344 80.0637 12.703C79.8852 12.8612 79.704 13.0092 79.52 13.1468C79.3361 13.2844 79.1606 13.3922 78.9938 13.47C78.6779 13.6099 78.3625 13.6281 78.0477 13.5248C77.7432 13.4186 77.4976 13.2028 77.311 12.8774C77.1857 12.6569 77.1054 12.419 77.07 12.1634C77.0319 11.8975 77.0443 11.6347 77.1072 11.3749C77.1674 11.1048 77.2756 10.8494 77.432 10.6087C77.5987 10.3653 77.8125 10.1534 78.0733 9.9731C78.1372 9.92286 78.2282 9.87088 78.3463 9.81714C78.4747 9.76064 78.6073 9.7196 78.744 9.69402C78.8882 9.65537 79.0393 9.64247 79.1974 9.65534C79.3554 9.66821 79.5129 9.71989 79.6696 9.8104C79.6227 9.63525 79.5665 9.44602 79.5009 9.24272C79.443 9.02635 79.3798 8.81136 79.3116 8.59776C79.2433 8.38415 79.174 8.18738 79.1037 8.00744C79.0409 7.81444 78.9813 7.65373 78.9248 7.52531C78.8628 7.37628 78.7761 7.30012 78.6648 7.29682C78.561 7.28045 78.4439 7.31735 78.3135 7.40752C78.0883 7.5562 77.8426 7.7932 77.5764 8.11852C77.3102 8.44384 77.0636 8.78047 76.8366 9.12841C76.7687 9.24599 76.6715 9.31619 76.5451 9.33901C76.4291 9.35908 76.3188 9.33894 76.2142 9.2786C76.1097 9.21826 76.0385 9.13796 76.0006 9.03768C75.9599 8.92711 75.9694 8.79758 76.029 8.64909C76.1545 8.4167 76.2991 8.17364 76.4631 7.9199C76.627 7.66617 76.8067 7.43028 77.0023 7.21223C77.1951 6.98388 77.4013 6.78506 77.621 6.61577C77.8407 6.44648 78.0727 6.32356 78.3173 6.247C78.6751 6.14007 78.9754 6.14796 79.2181 6.27066C79.458 6.38305 79.6345 6.56767 79.7475 6.82451ZM78.845 10.6277C78.7194 10.6945 78.5931 10.8001 78.4661 10.9445C78.3467 11.0759 78.2446 11.2303 78.1596 11.4077C78.0821 11.572 78.036 11.75 78.0211 11.9417C78.0137 12.1204 78.0579 12.2852 78.1536 12.4363C78.1908 12.4926 78.2444 12.5279 78.3145 12.5422C78.3949 12.5538 78.4735 12.5383 78.5505 12.4956C78.7839 12.3778 79.0359 12.2054 79.3063 11.9783C79.5843 11.7382 79.7926 11.5057 79.9311 11.2808C79.9145 11.219 79.8629 11.15 79.7763 11.0739C79.6868 10.9874 79.5885 10.9088 79.4812 10.8382C79.3712 10.7572 79.255 10.6945 79.1326 10.65C79.0206 10.6027 78.9247 10.5953 78.845 10.6277ZM83.4824 3.55442C83.4018 3.37725 83.3665 3.20448 83.3766 3.03613C83.397 2.86502 83.4921 2.74569 83.6617 2.67816C83.8107 2.61614 83.9557 2.62146 84.0966 2.69413C84.2479 2.76403 84.361 2.87726 84.4361 3.03383C84.9597 4.16349 85.4664 5.29213 85.9563 6.41976C86.4537 7.53433 86.925 8.63382 87.3701 9.71822C87.4914 10.006 87.526 10.2176 87.474 10.353C87.4192 10.4781 87.342 10.5816 87.2424 10.6635C87.1326 10.7481 87.0141 10.7799 86.887 10.7587C86.7702 10.7348 86.6783 10.66 86.6115 10.5344L86.5712 10.4458L86.5136 10.4778C86.2067 10.6925 85.8705 10.8599 85.5051 10.9799C85.137 11.0896 84.7691 11.1385 84.4015 11.1265C84.0339 11.1146 83.6858 11.0312 83.3571 10.8763C83.0361 10.7084 82.7706 10.4593 82.5606 10.129C82.1007 9.40193 82.062 8.6393 82.4445 7.84111C82.6097 7.50973 82.8384 7.18893 83.1308 6.8787C83.4231 6.56846 83.8 6.28527 84.2614 6.02912L84.523 5.89276L83.4824 3.55442ZM83.3998 9.49004C83.5279 9.72076 83.6923 9.881 83.893 9.97077C84.0938 10.0605 84.3144 10.1008 84.5549 10.0916C84.7926 10.0721 85.0361 10.0123 85.2854 9.91241C85.5347 9.81249 85.7719 9.68818 85.9971 9.5395L86.1238 9.45586L84.9622 6.85177L84.6738 7.01186C84.474 7.13166 84.2684 7.29166 84.057 7.49185C83.8532 7.67899 83.682 7.88498 83.5435 8.10983C83.405 8.33468 83.3132 8.56909 83.2681 8.81306C83.2333 9.05428 83.2773 9.27994 83.3998 9.49004ZM91.9805 4.45773C92.1605 5.00582 92.3418 5.55906 92.5246 6.11746C92.7176 6.67309 92.8784 7.23186 93.0069 7.79375C93.1326 8.34534 93.2195 8.89629 93.2675 9.4466C93.3259 9.99415 93.317 10.5377 93.2406 11.0771C93.1616 11.6063 93.0021 12.1239 92.7622 12.6299C92.5326 13.1331 92.1993 13.62 91.7622 14.0905C91.6936 14.1641 91.6091 14.2198 91.5088 14.2577C91.4189 14.2929 91.3248 14.3126 91.2265 14.3168C91.131 14.3314 91.0417 14.3277 90.9585 14.3058C90.8781 14.2942 90.8193 14.2603 90.7822 14.204C90.7264 14.1195 90.7142 14.0124 90.7457 13.8825C90.7772 13.7526 90.8484 13.6065 90.9596 13.4442C91.3218 12.9827 91.6064 12.5199 91.8133 12.0559C92.0203 11.5919 92.1571 11.1135 92.2239 10.6207C92.2906 10.128 92.2807 9.61716 92.1942 9.08819C92.1152 8.54616 91.962 7.97434 91.7345 7.37271C91.6523 7.56038 91.5509 7.75873 91.4302 7.96776C91.3095 8.17678 91.1744 8.37311 91.0248 8.55674C90.8725 8.73008 90.7109 8.88933 90.54 9.03452C90.3663 9.1694 90.1919 9.2603 90.0167 9.30723C89.8725 9.34588 89.7199 9.35363 89.5591 9.33046C89.3983 9.30729 89.2223 9.22745 89.0311 9.09095C88.8083 8.91875 88.594 8.71666 88.3883 8.48466C88.1901 8.2396 88.0102 8.00071 87.8484 7.76798C87.6867 7.53524 87.5473 7.32413 87.4303 7.13463C87.3235 6.94237 87.254 6.8064 87.2216 6.72674C87.1734 6.62923 87.1471 6.53135 87.1429 6.4331C87.1387 6.33485 87.1904 6.26023 87.2983 6.20926C87.4445 6.13694 87.5915 6.10859 87.7393 6.12422C87.887 6.13984 88.0018 6.19742 88.0837 6.29695C88.1553 6.39925 88.2589 6.55922 88.3945 6.77687C88.5301 6.99451 88.6812 7.20802 88.8477 7.41739C89.0115 7.61645 89.1735 7.78838 89.3338 7.93316C89.5044 8.07519 89.6566 8.12826 89.7906 8.09237C89.9451 8.05096 90.1047 7.92537 90.2694 7.71561C90.4443 7.50308 90.5966 7.24696 90.7261 6.94722C90.8556 6.64749 90.9473 6.33029 91.0011 5.9956C91.0626 5.64786 91.0546 5.32974 90.9773 5.04125C90.9608 4.97943 90.9517 4.90455 90.9503 4.8166C90.9488 4.72865 90.959 4.6431 90.9809 4.55993C91 4.46646 91.0284 4.38707 91.0661 4.32175C91.1114 4.24336 91.1635 4.19074 91.2226 4.16387C91.3819 4.09909 91.5386 4.10681 91.6926 4.18701C91.8542 4.25416 91.9501 4.3444 91.9805 4.45773ZM97.0431 3.86317C96.9533 4.06391 96.8505 4.25711 96.7346 4.44276C96.6187 4.62842 96.5145 4.81647 96.422 5.0069C96.3397 5.19458 96.286 5.38566 96.2608 5.58014C96.2356 5.77462 96.274 5.97967 96.376 6.1953C96.4867 6.32022 96.548 6.42527 96.5598 6.51046C96.5688 6.58534 96.5442 6.65821 96.4859 6.72905C96.328 6.88177 96.1301 6.8851 95.8922 6.73903C95.7327 6.63822 95.6023 6.50199 95.5011 6.33033C95.4074 6.14561 95.3461 5.95777 95.317 5.76679C95.2954 5.56274 95.301 5.35695 95.3338 5.14941C95.3768 4.9391 95.4511 4.7425 95.5567 4.55961C95.6623 4.37671 95.7717 4.18728 95.8848 3.99133C95.9952 3.78506 96.0887 3.57779 96.1654 3.36951C96.2421 3.16122 96.2879 2.96122 96.3028 2.7695C96.3149 2.56748 96.2793 2.37273 96.196 2.18525C96.1663 2.11589 96.1085 2.06511 96.0226 2.03292C95.9339 1.99043 95.8288 1.96891 95.7072 1.96837C95.5828 1.95752 95.4485 1.97143 95.3042 2.01008C95.1675 2.03566 95.0326 2.08839 94.8994 2.16825C94.6817 2.30387 94.5102 2.48788 94.3847 2.72027C94.2565 2.94235 94.2148 3.15781 94.2597 3.36663C94.376 3.51216 94.4013 3.62688 94.3354 3.71078C94.2771 3.78162 94.2067 3.82809 94.1243 3.85017C94.0522 3.8695 93.9797 3.86684 93.9068 3.84219C93.5933 3.66117 93.4133 3.42227 93.3669 3.1255C93.3308 2.82597 93.3738 2.53287 93.4957 2.2462C93.6074 1.96229 93.7792 1.71748 94.0112 1.51176C94.2507 1.29297 94.5274 1.13049 94.8413 1.0243C95.2349 0.88572 95.6303 0.857076 96.0275 0.938365C96.4323 1.00659 96.7555 1.22367 96.9971 1.58961C97.2525 2.00706 97.3602 2.40888 97.3201 2.79508C97.28 3.18128 97.1877 3.53731 97.0431 3.86317ZM97.7859 8.7991C97.8555 8.93506 97.8694 9.06937 97.8276 9.20203C97.7859 9.33469 97.7115 9.4485 97.6044 9.54345C97.5076 9.63563 97.3909 9.69452 97.2542 9.72011C97.1278 9.74293 97.003 9.7101 96.8799 9.62161C96.7988 9.56606 96.7406 9.49329 96.7055 9.40332C96.6703 9.31336 96.6441 9.21548 96.6268 9.10968C96.6198 9.00113 96.6142 8.89773 96.6099 8.79948C96.616 8.69847 96.6094 8.6119 96.5901 8.53978C96.5818 8.50887 96.5824 8.47004 96.592 8.42331C96.6015 8.37658 96.619 8.33876 96.6444 8.30988C96.6773 8.26792 96.7144 8.24143 96.7556 8.23038C96.7968 8.21934 96.8515 8.23783 96.9196 8.28584C97.0942 8.36053 97.2753 8.43898 97.463 8.52121C97.6479 8.59313 97.7556 8.68576 97.7859 8.7991Z" fill="#081131"/>
</svg>
