<svg width="50" height="52" viewBox="0 0 50 52" fill="none" xmlns="http://www.w3.org/2000/svg">
<path opacity="0.2" fill-rule="evenodd" clip-rule="evenodd" d="M48.7191 0.863256C47.9247 0.656015 47.113 0.483313 46.3013 0.414233C43.4345 0.189722 33.8151 -0.0693292 31.8808 0.0170211C31.2936 0.0170211 30.6374 0.120641 30.102 0.362422C29.1521 0.794175 29.0831 1.89946 29.9638 2.50391C30.2747 2.72842 30.6892 2.86658 31.0864 2.93567C32.2435 3.12564 33.4006 3.28107 34.5577 3.36742C38.0462 3.6092 41.5521 3.83371 45.0406 3.98914C46.1977 4.04095 47.3721 3.92006 48.5292 3.7819C49.3927 3.67828 50.0489 2.97021 49.9971 2.31394C49.9281 1.53679 49.4272 1.05323 48.7191 0.863256ZM25.7156 24.4887C25.9804 24.555 26.2294 24.6124 26.467 24.6671C26.9732 24.7838 27.4278 24.8886 27.8744 25.0414C34.5061 27.2865 40.4125 30.896 46.0252 35.0062C46.6815 35.4898 47.3032 36.0943 47.7177 36.7678C47.9422 37.1305 47.9077 37.8558 47.6832 38.2703C47.5105 38.5811 46.8369 38.8057 46.457 38.7366C45.7316 38.6157 44.989 38.3566 44.3328 37.994C39.998 35.6107 35.6804 33.2101 31.3802 30.7751C30.1232 30.0587 28.8769 29.3107 27.6328 28.564C27.2872 28.3566 26.9418 28.1493 26.5964 27.9428C26.061 27.6319 25.5429 27.2865 25.0593 26.9238C24.5067 26.5266 24.1786 25.9222 24.5412 25.3177C24.5645 25.2795 24.5871 25.2411 24.6096 25.2027C24.8216 24.8415 25.0287 24.4887 25.7156 24.4887ZM0.132005 48.0722L0.132028 48.0721C0.218912 47.4716 0.310957 46.8354 0.448931 46.2145L0.449228 46.2132C1.27809 42.5351 2.10696 38.857 2.97036 35.1962C3.16033 34.4018 3.48846 33.6246 3.86841 32.9165C4.36924 31.9667 5.07731 31.6385 5.85447 31.794C6.63162 31.9494 7.11518 32.5711 7.13245 33.6591C7.14972 34.4018 7.13245 35.1962 6.95975 35.9043C5.78539 40.5499 4.57648 45.1956 3.3503 49.8239C3.21214 50.342 2.97037 50.8774 2.62496 51.2746C1.77873 52.2763 0.44893 51.9654 0.120802 50.6874C0.0443894 50.3709 0.0369737 50.0267 0.0287797 49.6462L0.0287797 49.6461C0.0240075 49.4247 0.0189683 49.1909 -8.98774e-05 48.9432C0.0460794 48.6661 0.0883921 48.3737 0.132005 48.0722Z" fill="#5533FF"/>
</svg>
