<svg width="58" height="54" viewBox="0 0 58 54" fill="none" xmlns="http://www.w3.org/2000/svg">
<path d="M57.1373 51.6777C57.2522 52.0111 57.2341 52.376 57.087 52.6965C56.9399 53.017 56.6749 53.2686 56.3471 53.3988C55.8496 53.5689 55.3095 53.5676 54.8129 53.3949C54.213 53.2078 53.6286 52.9739 53.0652 52.6955C52.3963 52.4011 51.4266 51.9705 50.7936 51.599C50.0279 51.1499 45.7847 48.4353 45.2108 47.9987C44.3586 47.3506 42.3032 45.4928 41.932 45.1307C41.6795 44.8711 41.4271 44.6116 41.1498 44.3265C40.2082 45.4985 38.9795 45.4271 38.0045 45.2389C37.1281 45.0696 36.4218 44.5322 35.6545 44.0579C34.2995 43.2086 33.0101 42.2589 31.7972 41.2168C27.9854 38.0368 24.7811 34.266 21.2842 30.7607C20.5304 30.0093 19.8278 29.2042 19.1153 28.4126C17.4446 26.5582 15.7829 24.7001 14.1303 22.8382C13.651 22.2981 9.93465 17.6938 9.55435 17.1454C9.08848 16.4736 7.12535 13.6996 6.6868 13.0165C6.11322 12.1396 4.46132 9.44169 4.20761 8.9959C3.9539 8.55011 3.71073 8.04433 3.45346 7.57522C3.24358 7.18629 2.37669 5.50412 2.15209 5.0568C2.0069 4.758 1.84799 4.46871 1.7028 4.16991C1.30662 3.36911 0.926167 2.55301 0.549541 1.74084C0.506152 1.65295 0.431443 1.4463 0.36045 1.25134C0.30002 1.09594 0.291236 0.925207 0.335398 0.764422C0.379561 0.603637 0.474322 0.461346 0.605654 0.358613C1.18395 -0.0775231 1.8174 0.81775 1.9011 0.935299C2.1271 1.32296 2.32503 1.72633 2.49336 2.14229C2.61576 2.40586 2.68196 2.6667 2.80852 2.91093C3.2883 3.83704 3.78759 4.75566 4.27693 5.6916C4.64147 6.39691 8.00621 12.0127 8.39585 12.5865C8.7855 13.1602 12.981 18.8749 13.6667 19.7767C13.7394 19.8514 13.7964 19.9376 13.8671 20.0142C16.1077 22.503 18.2874 25.0473 20.5791 27.4902C24.0819 31.2258 27.6271 34.929 31.2149 38.5997C34.8375 41.8566 37.4812 43.3947 38.3748 43.7195C38.785 43.9289 40.0359 43.8066 39.7625 43.2422L39.2711 42.7369C37.4869 40.9023 35.6359 39.1249 33.9441 37.2043C33.0371 36.1733 32.3798 34.8995 32.6007 33.3838C32.7486 32.3791 33.4364 31.7408 34.2083 31.3307C35.0877 30.858 36.0409 31.0788 36.8028 31.8033C38.9736 33.8741 39.5493 35.0207 39.8891 35.6888C40.2856 36.4159 40.6215 37.1745 40.8933 37.9568C41.1692 38.8491 41.3801 39.7603 41.5245 40.6831C41.614 41.2236 41.5401 41.7928 41.577 42.3462C41.6062 42.5206 41.6918 42.6806 41.8209 42.8015C42.4905 43.4665 43.1562 44.1352 43.8593 44.7677C44.3803 45.2366 44.9329 45.671 45.4835 46.1074C45.9171 46.4509 46.6387 47.0041 47.0822 47.3342C47.5257 47.6643 47.9691 48.0022 48.409 48.3051C49.1046 48.7764 49.8003 49.2478 50.5119 49.6806C51.314 50.1631 52.1221 50.6399 52.9641 51.0415C53.708 51.3715 54.4686 51.6624 55.2428 51.9131C55.295 51.9313 55.3503 51.9387 55.4054 51.9348C55.6359 51.9301 55.8554 51.8349 56.0163 51.6698C56.1122 51.5414 56.2436 51.4438 56.3943 51.3891C56.5449 51.3343 56.7083 51.3248 56.8643 51.3616C56.9321 51.3881 56.9924 51.4307 57.04 51.4858C57.0876 51.5409 57.121 51.6067 57.1373 51.6777ZM39.8942 41.0289C39.8854 40.7832 39.8629 40.5381 39.8269 40.2948C39.6614 39.503 38.7242 36.7375 38.3962 36.1956C37.95 35.4425 37.431 34.7349 36.8467 34.083C36.5626 33.7417 36.2525 33.4229 35.9193 33.1294C35.6791 32.9394 35.3739 32.8514 35.0695 32.8841C34.765 32.9169 34.4856 33.0678 34.2913 33.3045C34.0642 33.5943 34.0778 33.8718 34.2139 34.4052C34.417 35.1067 34.7692 35.7561 35.2465 36.3089C36.6163 37.8157 39.7044 40.8692 39.9041 41.0194L39.8942 41.0289Z" fill="white"/>
</svg>
