<svg width="72" height="72" viewBox="0 0 72 72" fill="none" xmlns="http://www.w3.org/2000/svg">
<rect width="72" height="72" rx="16" fill="#FF8165" fill-opacity="0.1"/>
<path d="M34.4004 23.2C33.5167 23.2 32.8004 23.9164 32.8004 24.8C32.8004 25.6837 33.5167 26.4 34.4004 26.4H37.6004C38.484 26.4 39.2004 25.6837 39.2004 24.8C39.2004 23.9164 38.484 23.2 37.6004 23.2H34.4004Z" fill="#FF8165"/>
<path fill-rule="evenodd" clip-rule="evenodd" d="M26.4004 28C26.4004 26.2327 27.8331 24.8 29.6004 24.8C29.6004 27.451 31.7494 29.6 34.4004 29.6H37.6004C40.2514 29.6 42.4004 27.451 42.4004 24.8C44.1677 24.8 45.6004 26.2327 45.6004 28V45.6C45.6004 47.3673 44.1677 48.8 42.4004 48.8H29.6004C27.8331 48.8 26.4004 47.3673 26.4004 45.6V28ZM31.2004 34.4C30.3167 34.4 29.6004 35.1164 29.6004 36C29.6004 36.8837 30.3167 37.6 31.2004 37.6H31.2164C32.1 37.6 32.8164 36.8837 32.8164 36C32.8164 35.1164 32.1 34.4 31.2164 34.4H31.2004ZM36.0004 34.4C35.1167 34.4 34.4004 35.1164 34.4004 36C34.4004 36.8837 35.1167 37.6 36.0004 37.6H40.8004C41.684 37.6 42.4004 36.8837 42.4004 36C42.4004 35.1164 41.684 34.4 40.8004 34.4H36.0004ZM31.2004 40.8C30.3167 40.8 29.6004 41.5164 29.6004 42.4C29.6004 43.2837 30.3167 44 31.2004 44H31.2164C32.1 44 32.8164 43.2837 32.8164 42.4C32.8164 41.5164 32.1 40.8 31.2164 40.8H31.2004ZM36.0004 40.8C35.1167 40.8 34.4004 41.5164 34.4004 42.4C34.4004 43.2837 35.1167 44 36.0004 44H40.8004C41.684 44 42.4004 43.2837 42.4004 42.4C42.4004 41.5164 41.684 40.8 40.8004 40.8H36.0004Z" fill="#FF8165"/>
</svg>
