<svg width="72" height="72" viewBox="0 0 72 72" fill="none" xmlns="http://www.w3.org/2000/svg">
<rect width="72" height="72" rx="16" fill="#70CF97" fill-opacity="0.1"/>
<path fill-rule="evenodd" clip-rule="evenodd" d="M41.7245 41.7238C42.2452 41.2031 43.0894 41.2031 43.6101 41.7238L47.6101 45.7238C48.1308 46.2445 48.1308 47.0888 47.6101 47.6095C47.0894 48.1302 46.2452 48.1302 45.7245 47.6095L41.7245 43.6095C41.2038 43.0888 41.2038 42.2445 41.7245 41.7238Z" fill="#70CF97"/>
<path d="M33.3333 24C28.1787 24 24 28.1787 24 33.3333C24 38.488 28.1787 42.6667 33.3333 42.6667C38.488 42.6667 42.6667 38.488 42.6667 33.3333C42.6667 28.1787 38.488 24 33.3333 24Z" fill="#70CF97"/>
</svg>
