<svg width="24" height="24" viewBox="0 0 24 24" fill="none" xmlns="http://www.w3.org/2000/svg">
<path fill-rule="evenodd" clip-rule="evenodd" d="M7.10899 10.546C7 10.7599 7 11.0399 7 11.6V16.8C7 17.9201 7 18.4802 7.21799 18.908C7.40973 19.2843 7.71569 19.5903 8.09202 19.782C8.51984 20 9.0799 20 10.2 20H12V10H8.6C8.03995 10 7.75992 10 7.54601 10.109C7.35785 10.2049 7.20487 10.3578 7.10899 10.546ZM14 10V19.9999C14.9883 19.9992 15.5064 19.9866 15.908 19.782C16.2843 19.5903 16.5903 19.2843 16.782 18.908C17 18.4802 17 17.9201 17 16.8V11.6C17 11.0399 17 10.7599 16.891 10.546C16.7951 10.3578 16.6422 10.2049 16.454 10.109C16.2401 10 15.9601 10 15.4 10H14Z" fill="#FF8165"/>
<path fill-rule="evenodd" clip-rule="evenodd" d="M2.21799 5.09202C2 5.51984 2 6.0799 2 7.2V10.8C2 11.9201 2 12.4802 2.21799 12.908C2.40973 13.2843 2.71569 13.5903 3.09202 13.782C3.49359 13.9866 4.01165 13.9992 5 13.9999V12.8C5 11.1198 5 10.2798 5.32698 9.63803C5.6146 9.07354 6.07354 8.6146 6.63803 8.32698C7.27976 8 8.11984 8 9.8 8H14.2C15.8802 8 16.7202 8 17.362 8.32698C17.9265 8.6146 18.3854 9.07354 18.673 9.63803C19 10.2798 19 11.1198 19 12.8V13.9999C19.9883 13.9992 20.5064 13.9866 20.908 13.782C21.2843 13.5903 21.5903 13.2843 21.782 12.908C22 12.4802 22 11.9201 22 10.8V7.2C22 6.0799 22 5.51984 21.782 5.09202C21.5903 4.71569 21.2843 4.40973 20.908 4.21799C20.4802 4 19.9201 4 18.8 4H5.2C4.0799 4 3.51984 4 3.09202 4.21799C2.71569 4.40973 2.40973 4.71569 2.21799 5.09202Z" fill="#FF8165"/>
</svg>
