<svg width="24" height="24" viewBox="0 0 24 24" fill="none" xmlns="http://www.w3.org/2000/svg">
<path fill-rule="evenodd" clip-rule="evenodd" d="M2.32698 5.63803C2.09819 6.08706 2.02949 6.63319 2.00885 7.49627C2.00222 7.77377 2.22895 8.00316 2.50436 7.96851C4.31021 7.74131 5.74131 6.31021 5.96851 4.50436C6.00316 4.22895 5.77377 4.00222 5.49627 4.00885C4.63319 4.02949 4.08706 4.09819 3.63803 4.32698C3.07354 4.6146 2.6146 5.07354 2.32698 5.63803ZM2.49985 14.0205C2.22464 13.9978 2 13.7761 2 13.5V10.5C2 10.2239 2.22464 10.0022 2.49985 9.97948C5.41487 9.73906 7.73906 7.41487 7.97948 4.49985C8.00217 4.22464 8.22386 4 8.5 4H15.5C15.7761 4 15.9978 4.22464 16.0205 4.49985C16.2609 7.41487 18.5851 9.73906 21.5002 9.97948C21.7754 10.0022 22 10.2239 22 10.5V13.5C22 13.7761 21.7754 13.9978 21.5002 14.0205C18.5851 14.2609 16.2609 16.5851 16.0205 19.5002C15.9978 19.7754 15.7761 20 15.5 20H8.5C8.22386 20 8.00217 19.7754 7.97948 19.5002C7.73906 16.5851 5.41487 14.2609 2.49985 14.0205ZM18.0315 19.4956C17.9968 19.7711 18.2262 19.9978 18.5037 19.9911C19.3668 19.9705 19.9129 19.9018 20.362 19.673C20.9265 19.3854 21.3854 18.9265 21.673 18.362C21.9018 17.9129 21.9705 17.3668 21.9911 16.5037C21.9978 16.2262 21.7711 15.9968 21.4956 16.0315C19.6898 16.2587 18.2587 17.6898 18.0315 19.4956ZM2.00885 16.5037C2.00222 16.2262 2.22895 15.9968 2.50436 16.0315C4.31021 16.2587 5.74131 17.6898 5.96851 19.4956C6.00316 19.7711 5.77377 19.9978 5.49627 19.9911C4.63319 19.9705 4.08705 19.9018 3.63803 19.673C3.07354 19.3854 2.6146 18.9265 2.32698 18.362C2.09819 17.9129 2.02949 17.3668 2.00885 16.5037ZM21.4956 7.96851C21.7711 8.00316 21.9978 7.77377 21.9911 7.49627C21.9705 6.63319 21.9018 6.08706 21.673 5.63803C21.3854 5.07354 20.9265 4.6146 20.362 4.32698C19.9129 4.09819 19.3668 4.02949 18.5037 4.00885C18.2262 4.00222 17.9968 4.22895 18.0315 4.50436C18.2587 6.31021 19.6898 7.74131 21.4956 7.96851ZM12 14C13.1046 14 14 13.1046 14 12C14 10.8954 13.1046 10 12 10C10.8954 10 10 10.8954 10 12C10 13.1046 10.8954 14 12 14Z" fill="#FF9902"/>
</svg>
