<svg width="20" height="16" viewBox="0 0 20 16" fill="none" xmlns="http://www.w3.org/2000/svg">
<path fill-rule="evenodd" clip-rule="evenodd" d="M0.32698 1.63803C0 2.27976 0 3.11984 0 4.8V11.2C0 12.8802 0 13.7202 0.32698 14.362C0.614601 14.9265 1.07354 15.3854 1.63803 15.673C2.27976 16 3.11984 16 4.8 16H15.2C16.8802 16 17.7202 16 18.362 15.673C18.9265 15.3854 19.3854 14.9265 19.673 14.362C20 13.7202 20 12.8802 20 11.2V4.8C20 3.11984 20 2.27976 19.673 1.63803C19.3854 1.07354 18.9265 0.614601 18.362 0.32698C17.7202 0 16.8802 0 15.2 0H4.8C3.11984 0 2.27976 0 1.63803 0.32698C1.07354 0.614601 0.614601 1.07354 0.32698 1.63803ZM10 10C11.1046 10 12 9.10457 12 8C12 6.89543 11.1046 6 10 6C8.89543 6 8 6.89543 8 8C8 9.10457 8.89543 10 10 10ZM3 7C3 6.44772 3.44772 6 4 6C4.55228 6 5 6.44772 5 7V9C5 9.55229 4.55228 10 4 10C3.44772 10 3 9.55229 3 9V7ZM16 6C15.4477 6 15 6.44772 15 7V9C15 9.55229 15.4477 10 16 10C16.5523 10 17 9.55229 17 9V7C17 6.44772 16.5523 6 16 6Z" fill="#70CF97"/>
</svg>
