<svg width="24" height="24" viewBox="0 0 24 24" fill="none" xmlns="http://www.w3.org/2000/svg">
<path fill-rule="evenodd" clip-rule="evenodd" d="M18.9999 22C20.8781 22 22.2766 20.3068 22.8561 19.4645C23.0503 19.1823 23.0503 18.8177 22.8561 18.5355C22.2766 17.6932 20.8781 16 18.9999 16C17.1217 16 15.7232 17.6932 15.1437 18.5355C14.9495 18.8177 14.9495 19.1823 15.1437 19.4645C15.7232 20.3068 17.1217 22 18.9999 22ZM19.0001 20C19.5524 20 20.0001 19.5523 20.0001 19C20.0001 18.4477 19.5524 18 19.0001 18C18.4478 18 18.0001 18.4477 18.0001 19C18.0001 19.5523 18.4478 20 19.0001 20Z" fill="#2884FF"/>
<path d="M2.2733 7.94253C2.38257 8 2.52414 8 2.80727 8H21.1927C21.4759 8 21.6174 8 21.7267 7.94253C21.8206 7.89316 21.9008 7.80937 21.9461 7.71346C21.9988 7.60182 21.993 7.46602 21.9813 7.19444C21.9514 6.50152 21.8739 6.03233 21.673 5.63803C21.3854 5.07354 20.9265 4.6146 20.362 4.32698C19.7202 4 18.8802 4 17.2 4H6.8C5.11984 4 4.27976 4 3.63803 4.32698C3.07354 4.6146 2.6146 5.07354 2.32698 5.63803C2.12607 6.03233 2.04861 6.50152 2.01874 7.19444C2.00704 7.46602 2.00118 7.60182 2.05389 7.71346C2.09917 7.80937 2.17943 7.89316 2.2733 7.94253Z" fill="#2884FF"/>
<path fill-rule="evenodd" clip-rule="evenodd" d="M2.0545 10.273C2 10.38 2 10.52 2 10.8V15.2C2 16.8802 2 17.7202 2.32698 18.362C2.6146 18.9265 3.07354 19.3854 3.63803 19.673C4.27976 20 5.11984 20 6.8 20H12.2C12.48 20 12.62 20 12.727 19.9455C12.8211 19.8976 12.8976 19.8211 12.9455 19.727C13 19.62 13 19.48 13 19.2V19C13 15.6863 15.6863 13 19 13H21.2C21.48 13 21.62 13 21.727 12.9455C21.8211 12.8976 21.8976 12.8211 21.9455 12.727C22 12.62 22 12.48 22 12.2V10.8C22 10.52 22 10.38 21.9455 10.273C21.8976 10.1789 21.8211 10.1024 21.727 10.0545C21.62 10 21.48 10 21.2 10H2.8C2.51997 10 2.37996 10 2.273 10.0545C2.17892 10.1024 2.10243 10.1789 2.0545 10.273ZM6 15C6 14.4477 6.44772 14 7 14H11C11.5523 14 12 14.4477 12 15C12 15.5523 11.5523 16 11 16H7C6.44772 16 6 15.5523 6 15Z" fill="#2884FF"/>
</svg>
