<svg width="18" height="18" viewBox="0 0 18 18" fill="none" xmlns="http://www.w3.org/2000/svg">
<path fill-rule="evenodd" clip-rule="evenodd" d="M0.32698 1.63803C0 2.27976 0 3.11984 0 4.8V13.2C0 14.8802 0 15.7202 0.32698 16.362C0.614601 16.9265 1.07354 17.3854 1.63803 17.673C2.27976 18 3.11984 18 4.8 18H13.2C14.8802 18 15.7202 18 16.362 17.673C16.9265 17.3854 17.3854 16.9265 17.673 16.362C18 15.7202 18 14.8802 18 13.2V4.8C18 3.11984 18 2.27976 17.673 1.63803C17.3854 1.07354 16.9265 0.614601 16.362 0.32698C15.7202 0 14.8802 0 13.2 0H4.8C3.11984 0 2.27976 0 1.63803 0.32698C1.07354 0.614601 0.614601 1.07354 0.32698 1.63803ZM12 7C12 7.55228 12.4477 8 13 8C13.5523 8 14 7.55228 14 7V6H15C15.5523 6 16 5.55228 16 5C16 4.44772 15.5523 4 15 4H14V3C14 2.44772 13.5523 2 13 2C12.4477 2 12 2.44772 12 3V4H11C10.4477 4 10 4.44772 10 5C10 5.55228 10.4477 6 11 6H12V7ZM2 5C2 4.44772 2.44772 4 3 4H7C7.55228 4 8 4.44772 8 5C8 5.55228 7.55228 6 7 6H3C2.44772 6 2 5.55228 2 5ZM11 10C10.4477 10 10 10.4477 10 11C10 11.5523 10.4477 12 11 12H15C15.5523 12 16 11.5523 16 11C16 10.4477 15.5523 10 15 10H11ZM10 15C10 14.4477 10.4477 14 11 14H15C15.5523 14 16 14.4477 16 15C16 15.5523 15.5523 16 15 16H11C10.4477 16 10 15.5523 10 15ZM4.20711 10.7929C3.81658 10.4024 3.18342 10.4024 2.79289 10.7929C2.40237 11.1834 2.40237 11.8166 2.79289 12.2071L3.58579 13L2.79289 13.7929C2.40237 14.1834 2.40237 14.8166 2.79289 15.2071C3.18342 15.5976 3.81658 15.5976 4.20711 15.2071L5 14.4142L5.79289 15.2071C6.18342 15.5976 6.81658 15.5976 7.20711 15.2071C7.59763 14.8166 7.59763 14.1834 7.20711 13.7929L6.41421 13L7.20711 12.2071C7.59763 11.8166 7.59763 11.1834 7.20711 10.7929C6.81658 10.4024 6.18342 10.4024 5.79289 10.7929L5 11.5858L4.20711 10.7929Z" fill="#F9BC46"/>
</svg>
