<svg width="24" height="24" viewBox="0 0 24 24" fill="none" xmlns="http://www.w3.org/2000/svg">
<path d="M6 4.5C6 3.67157 6.67157 3 7.5 3H12.5C13.3284 3 14 3.67157 14 4.5C14 5.32843 13.3284 6 12.5 6H7.5C6.67157 6 6 5.32843 6 4.5Z" fill="#68C7DE"/>
<path d="M4.5 8C3.67157 8 3 8.67157 3 9.5C3 10.3284 3.67157 11 4.5 11H9.5C10.3284 11 11 10.3284 11 9.5C11 8.67157 10.3284 8 9.5 8H4.5Z" fill="#68C7DE"/>
<path d="M5 14.5C5 13.6716 5.67157 13 6.5 13H11.5C11.608 13 11.7134 13.0114 11.8149 13.0331C12.1037 13.0948 12.1587 13.4428 11.9955 13.689C11.6169 14.2601 11.3334 14.8998 11.1677 15.5855C11.1103 15.8229 10.9041 16 10.6599 16H6.5C5.67157 16 5 15.3284 5 14.5Z" fill="#68C7DE"/>
<path d="M3 19.5C3 18.6716 3.67157 18 4.5 18H9.5C10.3284 18 11 18.6716 11 19.5C11 20.3284 10.3284 21 9.5 21H4.5C3.67157 21 3 20.3284 3 19.5Z" fill="#68C7DE"/>
<path fill-rule="evenodd" clip-rule="evenodd" d="M17 21C19.2091 21 21 19.2091 21 17C21 14.7909 19.2091 13 17 13C14.7909 13 13 14.7909 13 17C13 19.2091 14.7909 21 17 21Z" fill="#68C7DE"/>
</svg>
