<svg width="40" height="32" viewBox="0 0 40 32" fill="none" xmlns="http://www.w3.org/2000/svg">
<path d="M39.3776 0.444336V8.53323H36.622C34.2516 8.53323 32.5331 9.09619 31.4665 10.2221C30.459 11.348 29.9553 13.511 29.9553 16.711C30.4887 16.6517 31.022 16.6221 31.5553 16.6221C33.6887 16.6221 35.4368 17.274 36.7998 18.5777C38.222 19.8221 38.9331 21.5999 38.9331 23.911C38.9331 26.0443 38.2516 27.8814 36.8887 29.4221C35.5257 30.9629 33.5702 31.7332 31.022 31.7332C29.3627 31.7332 27.822 31.348 26.3998 30.5777C25.0368 29.8073 23.9109 28.5036 23.022 26.6666C22.1924 24.8295 21.7776 22.3406 21.7776 19.1999V17.8666C21.7776 11.5851 23.1109 7.11101 25.7776 4.44434C28.5035 1.77767 32.385 0.444336 37.422 0.444336H39.3776ZM18.4887 0.444336V8.53323H15.7331C13.3627 8.53323 11.6442 9.09619 10.5776 10.2221C9.57015 11.348 9.06645 13.511 9.06645 16.711C9.59978 16.6517 10.1331 16.6221 10.6665 16.6221C12.7998 16.6221 14.5479 17.274 15.9109 18.5777C17.3331 19.8221 18.0442 21.5999 18.0442 23.911C18.0442 26.0443 17.3627 27.8814 15.9998 29.4221C14.6368 30.9629 12.6813 31.7332 10.1331 31.7332C8.47386 31.7332 6.93312 31.348 5.51089 30.5777C4.14793 29.8073 3.02201 28.5036 2.13312 26.6666C1.30349 24.8295 0.888672 22.3406 0.888672 19.1999V17.8666C0.888672 11.5851 2.22201 7.11101 4.88867 4.44434C7.6146 1.77767 11.4961 0.444336 16.5331 0.444336H18.4887Z" fill="#5533FF"/>
</svg>
