<?xml version="1.0" standalone="no"?>
<!DOCTYPE svg PUBLIC "-//W3C//DTD SVG 20010904//EN"
 "http://www.w3.org/TR/2001/REC-SVG-20010904/DTD/svg10.dtd">
<svg version="1.0" xmlns="http://www.w3.org/2000/svg"
 width="512.000000pt" height="512.000000pt" viewBox="0 0 512.000000 512.000000"
 preserveAspectRatio="xMidYMid meet">
<metadata>
Created by potrace 1.14, written by Peter Selinger 2001-2017
</metadata>
<g transform="translate(0.000000,512.000000) scale(0.100000,-0.100000)"
fill="#000000" stroke="none">
<path d="M2369 5116 c-2 -2 -33 -6 -69 -10 -155 -15 -367 -59 -520 -108 -71
-22 -231 -83 -258 -98 -9 -5 -61 -30 -115 -56 -117 -57 -191 -123 -235 -210
-112 -222 -26 -513 196 -660 59 -40 148 -79 202 -88 188 -35 330 -27 515 29
194 59 302 76 475 76 228 1 432 -47 632 -146 260 -129 493 -352 630 -605 67
-124 136 -327 153 -453 4 -27 9 -59 11 -70 7 -29 7 -274 1 -312 -3 -16 -9 -50
-12 -75 -11 -71 -13 -78 -40 -171 -44 -155 -124 -316 -225 -455 -67 -92 -246
-263 -343 -327 -247 -164 -462 -233 -792 -252 -187 -11 -294 -22 -385 -39
-383 -74 -770 -299 -1028 -600 l-42 -48 23 -18 c24 -18 182 -110 262 -153 125
-65 367 -153 540 -196 90 -22 240 -47 360 -60 77 -8 484 -6 535 3 14 2 45 7
70 10 555 79 1073 337 1465 732 38 38 90 94 115 123 25 30 50 59 56 65 27 29
139 186 187 264 54 86 149 269 182 347 19 46 75 193 81 215 24 84 83 325 88
360 3 25 8 55 10 68 21 102 29 492 13 622 -44 375 -141 680 -322 1005 -58 105
-188 295 -240 351 -5 6 -30 36 -55 65 -263 313 -684 597 -1099 740 -134 47
-351 99 -476 114 -27 4 -61 9 -75 11 -28 6 -466 15 -471 10z"/>
<path d="M2435 3515 c-5 -2 -46 -11 -90 -21 -172 -38 -327 -125 -460 -257
-133 -133 -210 -269 -257 -449 -27 -104 -32 -293 -12 -399 70 -367 327 -648
689 -755 76 -22 111 -26 225 -28 153 -1 208 5 306 35 344 105 600 390 668 745
17 90 16 288 -3 369 -51 218 -158 398 -322 536 -177 150 -365 220 -604 224
-71 1 -134 1 -140 0z"/>
</g>
</svg>
