<svg width="32" height="32" viewBox="0 0 32 32" fill="none" xmlns="http://www.w3.org/2000/svg">
<mask id="path-1-inside-1" fill="white">
<path d="M11.5967 27.6774C10.9108 29.4964 11.8331 31.5697 13.7579 31.8421C15.3744 32.0709 17.0232 32.0519 18.6469 31.7795C21.4339 31.312 24.0474 30.1147 26.2214 28.3094C28.3955 26.5041 30.0527 24.1552 31.0244 21.5016C31.9961 18.848 32.2476 15.9844 31.7535 13.202C31.2593 10.4196 30.037 7.81779 28.2109 5.66109C26.3849 3.5044 24.0202 1.86982 21.3574 0.92359C18.6946 -0.0226342 15.8287 -0.246737 13.0512 0.274076C11.433 0.577503 9.87849 1.12747 8.43968 1.89888C6.72635 2.81747 6.57442 5.0816 7.84478 6.55316V6.55316C9.11514 8.02472 11.3417 8.10307 13.1875 7.49285C13.5662 7.36765 13.9541 7.26748 14.3487 7.19348C15.9041 6.90183 17.509 7.02732 19.0002 7.55721C20.4913 8.0871 21.8155 9.00247 22.8381 10.2102C23.8607 11.418 24.5452 12.875 24.8219 14.4331C25.0987 15.9913 24.9578 17.5949 24.4137 19.0809C23.8695 20.5669 22.9415 21.8823 21.724 22.8933C20.5065 23.9043 19.043 24.5747 17.4823 24.8365C17.0863 24.903 16.6877 24.9425 16.2891 24.9553C14.346 25.0181 12.2826 25.8584 11.5967 27.6774V27.6774Z"/>
</mask>
<path d="M11.5967 27.6774C10.9108 29.4964 11.8331 31.5697 13.7579 31.8421C15.3744 32.0709 17.0232 32.0519 18.6469 31.7795C21.4339 31.312 24.0474 30.1147 26.2214 28.3094C28.3955 26.5041 30.0527 24.1552 31.0244 21.5016C31.9961 18.848 32.2476 15.9844 31.7535 13.202C31.2593 10.4196 30.037 7.81779 28.2109 5.66109C26.3849 3.5044 24.0202 1.86982 21.3574 0.92359C18.6946 -0.0226342 15.8287 -0.246737 13.0512 0.274076C11.433 0.577503 9.87849 1.12747 8.43968 1.89888C6.72635 2.81747 6.57442 5.0816 7.84478 6.55316V6.55316C9.11514 8.02472 11.3417 8.10307 13.1875 7.49285C13.5662 7.36765 13.9541 7.26748 14.3487 7.19348C15.9041 6.90183 17.509 7.02732 19.0002 7.55721C20.4913 8.0871 21.8155 9.00247 22.8381 10.2102C23.8607 11.418 24.5452 12.875 24.8219 14.4331C25.0987 15.9913 24.9578 17.5949 24.4137 19.0809C23.8695 20.5669 22.9415 21.8823 21.724 22.8933C20.5065 23.9043 19.043 24.5747 17.4823 24.8365C17.0863 24.903 16.6877 24.9425 16.2891 24.9553C14.346 25.0181 12.2826 25.8584 11.5967 27.6774V27.6774Z" fill="white" stroke="#A294FF" stroke-width="14" mask="url(#path-1-inside-1)"/>
<circle cx="16" cy="16" r="6" fill="currentColor"/>
<path fill-rule="evenodd" clip-rule="evenodd" d="M24.8512 29.2802C22.3013 30.9976 19.2299 32 15.9243 32C12.6199 32 9.54941 30.9983 7 29.2819C9.06139 26.6774 12.2931 25 15.9263 25C19.5586 25 22.7897 26.6767 24.8512 29.2802Z" fill="currentColor"/>
</svg>
